<mxfile host="app.diagrams.net" agent="Mozilla/5.0 (Windows NT 10.0; Win64; x64) AppleWebKit/537.36 (KHTML, like Gecko) Chrome/130.0.0.0 Safari/537.36" version="24.8.6">
  <diagram name="Page-1" id="sSUNiJWBVMpFFrQlbmdP">
    <mxGraphModel dx="2744" dy="2328" grid="1" gridSize="10" guides="1" tooltips="1" connect="1" arrows="1" fold="1" page="1" pageScale="1" pageWidth="850" pageHeight="1100" math="0" shadow="0">
      <root>
        <mxCell id="0" />
        <mxCell id="1" parent="0" />
        <mxCell id="ScmmdYI26w7pvmoBLU-k-143" value="Product" style="swimlane;fontStyle=1;align=center;verticalAlign=top;childLayout=stackLayout;horizontal=1;startSize=24.340738932291668;horizontalStack=0;resizeParent=1;resizeParentMax=0;resizeLast=0;collapsible=0;marginBottom=0;" parent="1" vertex="1">
          <mxGeometry x="290" y="-150" width="205" height="336.3407389322917" as="geometry" />
        </mxCell>
        <mxCell id="ScmmdYI26w7pvmoBLU-k-144" value="+int productID" style="text;strokeColor=none;fillColor=none;align=left;verticalAlign=top;spacingLeft=4;spacingRight=4;overflow=hidden;rotatable=0;points=[[0,0.5],[1,0.5]];portConstraint=eastwest;" parent="ScmmdYI26w7pvmoBLU-k-143" vertex="1">
          <mxGeometry y="24.340738932291668" width="205" height="24" as="geometry" />
        </mxCell>
        <mxCell id="ScmmdYI26w7pvmoBLU-k-145" value="+string productName" style="text;strokeColor=none;fillColor=none;align=left;verticalAlign=top;spacingLeft=4;spacingRight=4;overflow=hidden;rotatable=0;points=[[0,0.5],[1,0.5]];portConstraint=eastwest;" parent="ScmmdYI26w7pvmoBLU-k-143" vertex="1">
          <mxGeometry y="48.34073893229167" width="205" height="24" as="geometry" />
        </mxCell>
        <mxCell id="ScmmdYI26w7pvmoBLU-k-146" value="+string productDescription" style="text;strokeColor=none;fillColor=none;align=left;verticalAlign=top;spacingLeft=4;spacingRight=4;overflow=hidden;rotatable=0;points=[[0,0.5],[1,0.5]];portConstraint=eastwest;" parent="ScmmdYI26w7pvmoBLU-k-143" vertex="1">
          <mxGeometry y="72.34073893229167" width="205" height="24" as="geometry" />
        </mxCell>
        <mxCell id="ScmmdYI26w7pvmoBLU-k-147" value="+string size" style="text;strokeColor=none;fillColor=none;align=left;verticalAlign=top;spacingLeft=4;spacingRight=4;overflow=hidden;rotatable=0;points=[[0,0.5],[1,0.5]];portConstraint=eastwest;" parent="ScmmdYI26w7pvmoBLU-k-143" vertex="1">
          <mxGeometry y="96.34073893229167" width="205" height="24" as="geometry" />
        </mxCell>
        <mxCell id="ScmmdYI26w7pvmoBLU-k-148" value="+string color" style="text;strokeColor=none;fillColor=none;align=left;verticalAlign=top;spacingLeft=4;spacingRight=4;overflow=hidden;rotatable=0;points=[[0,0.5],[1,0.5]];portConstraint=eastwest;" parent="ScmmdYI26w7pvmoBLU-k-143" vertex="1">
          <mxGeometry y="120.34073893229167" width="205" height="24" as="geometry" />
        </mxCell>
        <mxCell id="ScmmdYI26w7pvmoBLU-k-149" value="+string material" style="text;strokeColor=none;fillColor=none;align=left;verticalAlign=top;spacingLeft=4;spacingRight=4;overflow=hidden;rotatable=0;points=[[0,0.5],[1,0.5]];portConstraint=eastwest;" parent="ScmmdYI26w7pvmoBLU-k-143" vertex="1">
          <mxGeometry y="144.34073893229169" width="205" height="24" as="geometry" />
        </mxCell>
        <mxCell id="ScmmdYI26w7pvmoBLU-k-150" value="+bool availabilityStatus" style="text;strokeColor=none;fillColor=none;align=left;verticalAlign=top;spacingLeft=4;spacingRight=4;overflow=hidden;rotatable=0;points=[[0,0.5],[1,0.5]];portConstraint=eastwest;" parent="ScmmdYI26w7pvmoBLU-k-143" vertex="1">
          <mxGeometry y="168.34073893229169" width="205" height="24" as="geometry" />
        </mxCell>
        <mxCell id="ScmmdYI26w7pvmoBLU-k-151" value="+date dateAdded" style="text;strokeColor=none;fillColor=none;align=left;verticalAlign=top;spacingLeft=4;spacingRight=4;overflow=hidden;rotatable=0;points=[[0,0.5],[1,0.5]];portConstraint=eastwest;" parent="ScmmdYI26w7pvmoBLU-k-143" vertex="1">
          <mxGeometry y="192.34073893229169" width="205" height="24" as="geometry" />
        </mxCell>
        <mxCell id="ScmmdYI26w7pvmoBLU-k-152" value="+float finalRating" style="text;strokeColor=none;fillColor=none;align=left;verticalAlign=top;spacingLeft=4;spacingRight=4;overflow=hidden;rotatable=0;points=[[0,0.5],[1,0.5]];portConstraint=eastwest;" parent="ScmmdYI26w7pvmoBLU-k-143" vertex="1">
          <mxGeometry y="216.34073893229169" width="205" height="24" as="geometry" />
        </mxCell>
        <mxCell id="ScmmdYI26w7pvmoBLU-k-154" value="+int wishlistCount" style="text;strokeColor=none;fillColor=none;align=left;verticalAlign=top;spacingLeft=4;spacingRight=4;overflow=hidden;rotatable=0;points=[[0,0.5],[1,0.5]];portConstraint=eastwest;" parent="ScmmdYI26w7pvmoBLU-k-143" vertex="1">
          <mxGeometry y="240.34073893229169" width="205" height="24" as="geometry" />
        </mxCell>
        <mxCell id="34ZibDvPMCApKAnHF6sJ-1" value="+int Rating" style="text;strokeColor=none;fillColor=none;align=left;verticalAlign=top;spacingLeft=4;spacingRight=4;overflow=hidden;rotatable=0;points=[[0,0.5],[1,0.5]];portConstraint=eastwest;" parent="ScmmdYI26w7pvmoBLU-k-143" vertex="1">
          <mxGeometry y="264.3407389322917" width="205" height="24" as="geometry" />
        </mxCell>
        <mxCell id="K6QkxCRquSAkjNnAn1gc-12" value="+float unitPrice" style="text;strokeColor=none;fillColor=none;align=left;verticalAlign=top;spacingLeft=4;spacingRight=4;overflow=hidden;rotatable=0;points=[[0,0.5],[1,0.5]];portConstraint=eastwest;" vertex="1" parent="ScmmdYI26w7pvmoBLU-k-143">
          <mxGeometry y="288.3407389322917" width="205" height="24" as="geometry" />
        </mxCell>
        <mxCell id="K6QkxCRquSAkjNnAn1gc-13" value="+int unitsInStock" style="text;strokeColor=none;fillColor=none;align=left;verticalAlign=top;spacingLeft=4;spacingRight=4;overflow=hidden;rotatable=0;points=[[0,0.5],[1,0.5]];portConstraint=eastwest;" vertex="1" parent="ScmmdYI26w7pvmoBLU-k-143">
          <mxGeometry y="312.3407389322917" width="205" height="24" as="geometry" />
        </mxCell>
        <mxCell id="ScmmdYI26w7pvmoBLU-k-157" value="Category" style="swimlane;fontStyle=1;align=center;verticalAlign=top;childLayout=stackLayout;horizontal=1;startSize=27.599999564034597;horizontalStack=0;resizeParent=1;resizeParentMax=0;resizeLast=0;collapsible=0;marginBottom=0;" parent="1" vertex="1">
          <mxGeometry x="70" y="-268.42999999999995" width="171" height="111.59999956403459" as="geometry" />
        </mxCell>
        <mxCell id="ScmmdYI26w7pvmoBLU-k-158" value="+int categoryID" style="text;strokeColor=none;fillColor=none;align=left;verticalAlign=top;spacingLeft=4;spacingRight=4;overflow=hidden;rotatable=0;points=[[0,0.5],[1,0.5]];portConstraint=eastwest;" parent="ScmmdYI26w7pvmoBLU-k-157" vertex="1">
          <mxGeometry y="27.599999564034597" width="171" height="28" as="geometry" />
        </mxCell>
        <mxCell id="ScmmdYI26w7pvmoBLU-k-159" value="+string categoryName" style="text;strokeColor=none;fillColor=none;align=left;verticalAlign=top;spacingLeft=4;spacingRight=4;overflow=hidden;rotatable=0;points=[[0,0.5],[1,0.5]];portConstraint=eastwest;" parent="ScmmdYI26w7pvmoBLU-k-157" vertex="1">
          <mxGeometry y="55.5999995640346" width="171" height="28" as="geometry" />
        </mxCell>
        <mxCell id="34ZibDvPMCApKAnHF6sJ-2" value="+stringÂ Description" style="text;strokeColor=none;fillColor=none;align=left;verticalAlign=top;spacingLeft=4;spacingRight=4;overflow=hidden;rotatable=0;points=[[0,0.5],[1,0.5]];portConstraint=eastwest;" parent="ScmmdYI26w7pvmoBLU-k-157" vertex="1">
          <mxGeometry y="83.59999956403459" width="171" height="28" as="geometry" />
        </mxCell>
        <mxCell id="ScmmdYI26w7pvmoBLU-k-161" value="Customer" style="swimlane;fontStyle=1;align=center;verticalAlign=top;childLayout=stackLayout;horizontal=1;startSize=24.340738932291668;horizontalStack=0;resizeParent=1;resizeParentMax=0;resizeLast=0;collapsible=0;marginBottom=0;" parent="1" vertex="1">
          <mxGeometry x="981.16" y="90.00000000000003" width="183" height="216.34073893229169" as="geometry" />
        </mxCell>
        <mxCell id="ScmmdYI26w7pvmoBLU-k-162" value="+int customerID" style="text;strokeColor=none;fillColor=none;align=left;verticalAlign=top;spacingLeft=4;spacingRight=4;overflow=hidden;rotatable=0;points=[[0,0.5],[1,0.5]];portConstraint=eastwest;" parent="ScmmdYI26w7pvmoBLU-k-161" vertex="1">
          <mxGeometry y="24.340738932291668" width="183" height="24" as="geometry" />
        </mxCell>
        <mxCell id="ScmmdYI26w7pvmoBLU-k-163" value="+string Name" style="text;strokeColor=none;fillColor=none;align=left;verticalAlign=top;spacingLeft=4;spacingRight=4;overflow=hidden;rotatable=0;points=[[0,0.5],[1,0.5]];portConstraint=eastwest;" parent="ScmmdYI26w7pvmoBLU-k-161" vertex="1">
          <mxGeometry y="48.34073893229167" width="183" height="24" as="geometry" />
        </mxCell>
        <mxCell id="ScmmdYI26w7pvmoBLU-k-165" value="+string email" style="text;strokeColor=none;fillColor=none;align=left;verticalAlign=top;spacingLeft=4;spacingRight=4;overflow=hidden;rotatable=0;points=[[0,0.5],[1,0.5]];portConstraint=eastwest;" parent="ScmmdYI26w7pvmoBLU-k-161" vertex="1">
          <mxGeometry y="72.34073893229167" width="183" height="24" as="geometry" />
        </mxCell>
        <mxCell id="ScmmdYI26w7pvmoBLU-k-166" value="+string phoneNo" style="text;strokeColor=none;fillColor=none;align=left;verticalAlign=top;spacingLeft=4;spacingRight=4;overflow=hidden;rotatable=0;points=[[0,0.5],[1,0.5]];portConstraint=eastwest;" parent="ScmmdYI26w7pvmoBLU-k-161" vertex="1">
          <mxGeometry y="96.34073893229167" width="183" height="24" as="geometry" />
        </mxCell>
        <mxCell id="ScmmdYI26w7pvmoBLU-k-167" value="+string address" style="text;strokeColor=none;fillColor=none;align=left;verticalAlign=top;spacingLeft=4;spacingRight=4;overflow=hidden;rotatable=0;points=[[0,0.5],[1,0.5]];portConstraint=eastwest;" parent="ScmmdYI26w7pvmoBLU-k-161" vertex="1">
          <mxGeometry y="120.34073893229167" width="183" height="24" as="geometry" />
        </mxCell>
        <mxCell id="ScmmdYI26w7pvmoBLU-k-170" value="+string postalCode" style="text;strokeColor=none;fillColor=none;align=left;verticalAlign=top;spacingLeft=4;spacingRight=4;overflow=hidden;rotatable=0;points=[[0,0.5],[1,0.5]];portConstraint=eastwest;" parent="ScmmdYI26w7pvmoBLU-k-161" vertex="1">
          <mxGeometry y="144.34073893229169" width="183" height="24" as="geometry" />
        </mxCell>
        <mxCell id="ScmmdYI26w7pvmoBLU-k-172" value="+string password" style="text;strokeColor=none;fillColor=none;align=left;verticalAlign=top;spacingLeft=4;spacingRight=4;overflow=hidden;rotatable=0;points=[[0,0.5],[1,0.5]];portConstraint=eastwest;" parent="ScmmdYI26w7pvmoBLU-k-161" vertex="1">
          <mxGeometry y="168.34073893229169" width="183" height="24" as="geometry" />
        </mxCell>
        <mxCell id="K6QkxCRquSAkjNnAn1gc-8" value="+stringÂ NotificationDetails" style="text;strokeColor=none;fillColor=none;align=left;verticalAlign=top;spacingLeft=4;spacingRight=4;overflow=hidden;rotatable=0;points=[[0,0.5],[1,0.5]];portConstraint=eastwest;" vertex="1" parent="ScmmdYI26w7pvmoBLU-k-161">
          <mxGeometry y="192.34073893229169" width="183" height="24" as="geometry" />
        </mxCell>
        <mxCell id="ScmmdYI26w7pvmoBLU-k-175" value="Cart" style="swimlane;fontStyle=1;align=center;verticalAlign=top;childLayout=stackLayout;horizontal=1;startSize=25.25333251953125;horizontalStack=0;resizeParent=1;resizeParentMax=0;resizeLast=0;collapsible=0;marginBottom=0;" parent="1" vertex="1">
          <mxGeometry x="1240" y="129.99999999999997" width="128" height="175.25333251953126" as="geometry" />
        </mxCell>
        <mxCell id="ScmmdYI26w7pvmoBLU-k-176" value="+int cartID" style="text;strokeColor=none;fillColor=none;align=left;verticalAlign=top;spacingLeft=4;spacingRight=4;overflow=hidden;rotatable=0;points=[[0,0.5],[1,0.5]];portConstraint=eastwest;" parent="ScmmdYI26w7pvmoBLU-k-175" vertex="1">
          <mxGeometry y="25.25333251953125" width="128" height="25" as="geometry" />
        </mxCell>
        <mxCell id="ScmmdYI26w7pvmoBLU-k-177" value="+int productID" style="text;strokeColor=none;fillColor=none;align=left;verticalAlign=top;spacingLeft=4;spacingRight=4;overflow=hidden;rotatable=0;points=[[0,0.5],[1,0.5]];portConstraint=eastwest;" parent="ScmmdYI26w7pvmoBLU-k-175" vertex="1">
          <mxGeometry y="50.25333251953125" width="128" height="25" as="geometry" />
        </mxCell>
        <mxCell id="ScmmdYI26w7pvmoBLU-k-178" value="+int customerID" style="text;strokeColor=none;fillColor=none;align=left;verticalAlign=top;spacingLeft=4;spacingRight=4;overflow=hidden;rotatable=0;points=[[0,0.5],[1,0.5]];portConstraint=eastwest;" parent="ScmmdYI26w7pvmoBLU-k-175" vertex="1">
          <mxGeometry y="75.25333251953126" width="128" height="25" as="geometry" />
        </mxCell>
        <mxCell id="ScmmdYI26w7pvmoBLU-k-179" value="+int quantity" style="text;strokeColor=none;fillColor=none;align=left;verticalAlign=top;spacingLeft=4;spacingRight=4;overflow=hidden;rotatable=0;points=[[0,0.5],[1,0.5]];portConstraint=eastwest;" parent="ScmmdYI26w7pvmoBLU-k-175" vertex="1">
          <mxGeometry y="100.25333251953126" width="128" height="25" as="geometry" />
        </mxCell>
        <mxCell id="ScmmdYI26w7pvmoBLU-k-180" value="+float unitPrice" style="text;strokeColor=none;fillColor=none;align=left;verticalAlign=top;spacingLeft=4;spacingRight=4;overflow=hidden;rotatable=0;points=[[0,0.5],[1,0.5]];portConstraint=eastwest;" parent="ScmmdYI26w7pvmoBLU-k-175" vertex="1">
          <mxGeometry y="125.25333251953126" width="128" height="25" as="geometry" />
        </mxCell>
        <mxCell id="ScmmdYI26w7pvmoBLU-k-181" value="+float totalCost" style="text;strokeColor=none;fillColor=none;align=left;verticalAlign=top;spacingLeft=4;spacingRight=4;overflow=hidden;rotatable=0;points=[[0,0.5],[1,0.5]];portConstraint=eastwest;" parent="ScmmdYI26w7pvmoBLU-k-175" vertex="1">
          <mxGeometry y="150.25333251953126" width="128" height="25" as="geometry" />
        </mxCell>
        <mxCell id="ScmmdYI26w7pvmoBLU-k-183" value="Order" style="swimlane;fontStyle=1;align=center;verticalAlign=top;childLayout=stackLayout;horizontal=1;startSize=24.43199951171875;horizontalStack=0;resizeParent=1;resizeParentMax=0;resizeLast=0;collapsible=0;marginBottom=0;" parent="1" vertex="1">
          <mxGeometry x="560" y="16.82" width="210" height="336.43199951171874" as="geometry" />
        </mxCell>
        <mxCell id="ScmmdYI26w7pvmoBLU-k-184" value="+int orderID" style="text;strokeColor=none;fillColor=none;align=left;verticalAlign=top;spacingLeft=4;spacingRight=4;overflow=hidden;rotatable=0;points=[[0,0.5],[1,0.5]];portConstraint=eastwest;" parent="ScmmdYI26w7pvmoBLU-k-183" vertex="1">
          <mxGeometry y="24.43199951171875" width="210" height="24" as="geometry" />
        </mxCell>
        <mxCell id="ScmmdYI26w7pvmoBLU-k-186" value="+int productID" style="text;strokeColor=none;fillColor=none;align=left;verticalAlign=top;spacingLeft=4;spacingRight=4;overflow=hidden;rotatable=0;points=[[0,0.5],[1,0.5]];portConstraint=eastwest;" parent="ScmmdYI26w7pvmoBLU-k-183" vertex="1">
          <mxGeometry y="48.43199951171875" width="210" height="24" as="geometry" />
        </mxCell>
        <mxCell id="ScmmdYI26w7pvmoBLU-k-187" value="+int quantity" style="text;strokeColor=none;fillColor=none;align=left;verticalAlign=top;spacingLeft=4;spacingRight=4;overflow=hidden;rotatable=0;points=[[0,0.5],[1,0.5]];portConstraint=eastwest;" parent="ScmmdYI26w7pvmoBLU-k-183" vertex="1">
          <mxGeometry y="72.43199951171874" width="210" height="24" as="geometry" />
        </mxCell>
        <mxCell id="ScmmdYI26w7pvmoBLU-k-188" value="+date deliveryDate" style="text;strokeColor=none;fillColor=none;align=left;verticalAlign=top;spacingLeft=4;spacingRight=4;overflow=hidden;rotatable=0;points=[[0,0.5],[1,0.5]];portConstraint=eastwest;" parent="ScmmdYI26w7pvmoBLU-k-183" vertex="1">
          <mxGeometry y="96.43199951171874" width="210" height="24" as="geometry" />
        </mxCell>
        <mxCell id="ScmmdYI26w7pvmoBLU-k-189" value="+string orderStatus" style="text;strokeColor=none;fillColor=none;align=left;verticalAlign=top;spacingLeft=4;spacingRight=4;overflow=hidden;rotatable=0;points=[[0,0.5],[1,0.5]];portConstraint=eastwest;" parent="ScmmdYI26w7pvmoBLU-k-183" vertex="1">
          <mxGeometry y="120.43199951171874" width="210" height="24" as="geometry" />
        </mxCell>
        <mxCell id="ScmmdYI26w7pvmoBLU-k-190" value="+date shippedDate" style="text;strokeColor=none;fillColor=none;align=left;verticalAlign=top;spacingLeft=4;spacingRight=4;overflow=hidden;rotatable=0;points=[[0,0.5],[1,0.5]];portConstraint=eastwest;" parent="ScmmdYI26w7pvmoBLU-k-183" vertex="1">
          <mxGeometry y="144.43199951171874" width="210" height="24" as="geometry" />
        </mxCell>
        <mxCell id="ScmmdYI26w7pvmoBLU-k-191" value="+time shippedTime" style="text;strokeColor=none;fillColor=none;align=left;verticalAlign=top;spacingLeft=4;spacingRight=4;overflow=hidden;rotatable=0;points=[[0,0.5],[1,0.5]];portConstraint=eastwest;" parent="ScmmdYI26w7pvmoBLU-k-183" vertex="1">
          <mxGeometry y="168.43199951171874" width="210" height="24" as="geometry" />
        </mxCell>
        <mxCell id="ScmmdYI26w7pvmoBLU-k-192" value="+float discount" style="text;strokeColor=none;fillColor=none;align=left;verticalAlign=top;spacingLeft=4;spacingRight=4;overflow=hidden;rotatable=0;points=[[0,0.5],[1,0.5]];portConstraint=eastwest;" parent="ScmmdYI26w7pvmoBLU-k-183" vertex="1">
          <mxGeometry y="192.43199951171874" width="210" height="24" as="geometry" />
        </mxCell>
        <mxCell id="ScmmdYI26w7pvmoBLU-k-193" value="+string paymentStatus" style="text;strokeColor=none;fillColor=none;align=left;verticalAlign=top;spacingLeft=4;spacingRight=4;overflow=hidden;rotatable=0;points=[[0,0.5],[1,0.5]];portConstraint=eastwest;" parent="ScmmdYI26w7pvmoBLU-k-183" vertex="1">
          <mxGeometry y="216.43199951171874" width="210" height="24" as="geometry" />
        </mxCell>
        <mxCell id="ScmmdYI26w7pvmoBLU-k-194" value="+floatÂ TotalAmount" style="text;strokeColor=none;fillColor=none;align=left;verticalAlign=top;spacingLeft=4;spacingRight=4;overflow=hidden;rotatable=0;points=[[0,0.5],[1,0.5]];portConstraint=eastwest;" parent="ScmmdYI26w7pvmoBLU-k-183" vertex="1">
          <mxGeometry y="240.43199951171874" width="210" height="24" as="geometry" />
        </mxCell>
        <mxCell id="K6QkxCRquSAkjNnAn1gc-4" value="+int currierEmployeeId" style="text;strokeColor=none;fillColor=none;align=left;verticalAlign=top;spacingLeft=4;spacingRight=4;overflow=hidden;rotatable=0;points=[[0,0.5],[1,0.5]];portConstraint=eastwest;" vertex="1" parent="ScmmdYI26w7pvmoBLU-k-183">
          <mxGeometry y="264.43199951171874" width="210" height="24" as="geometry" />
        </mxCell>
        <mxCell id="K6QkxCRquSAkjNnAn1gc-5" value="+string currierEmployeeName" style="text;strokeColor=none;fillColor=none;align=left;verticalAlign=top;spacingLeft=4;spacingRight=4;overflow=hidden;rotatable=0;points=[[0,0.5],[1,0.5]];portConstraint=eastwest;" vertex="1" parent="ScmmdYI26w7pvmoBLU-k-183">
          <mxGeometry y="288.43199951171874" width="210" height="24" as="geometry" />
        </mxCell>
        <mxCell id="K6QkxCRquSAkjNnAn1gc-6" value="+string currierEmployeePhoneNum" style="text;strokeColor=none;fillColor=none;align=left;verticalAlign=top;spacingLeft=4;spacingRight=4;overflow=hidden;rotatable=0;points=[[0,0.5],[1,0.5]];portConstraint=eastwest;" vertex="1" parent="ScmmdYI26w7pvmoBLU-k-183">
          <mxGeometry y="312.43199951171874" width="210" height="24" as="geometry" />
        </mxCell>
        <mxCell id="ScmmdYI26w7pvmoBLU-k-202" value="Employee" style="swimlane;fontStyle=1;align=center;verticalAlign=top;childLayout=stackLayout;horizontal=1;startSize=25.56923029972957;horizontalStack=0;resizeParent=1;resizeParentMax=0;resizeLast=0;collapsible=0;marginBottom=0;" parent="1" vertex="1">
          <mxGeometry x="1005.6599999999999" y="-350.00000000000006" width="134" height="155.56923029972955" as="geometry" />
        </mxCell>
        <mxCell id="ScmmdYI26w7pvmoBLU-k-203" value="+int employeeID" style="text;strokeColor=none;fillColor=none;align=left;verticalAlign=top;spacingLeft=4;spacingRight=4;overflow=hidden;rotatable=0;points=[[0,0.5],[1,0.5]];portConstraint=eastwest;" parent="ScmmdYI26w7pvmoBLU-k-202" vertex="1">
          <mxGeometry y="25.56923029972957" width="134" height="26" as="geometry" />
        </mxCell>
        <mxCell id="ScmmdYI26w7pvmoBLU-k-204" value="+string name" style="text;strokeColor=none;fillColor=none;align=left;verticalAlign=top;spacingLeft=4;spacingRight=4;overflow=hidden;rotatable=0;points=[[0,0.5],[1,0.5]];portConstraint=eastwest;" parent="ScmmdYI26w7pvmoBLU-k-202" vertex="1">
          <mxGeometry y="51.56923029972957" width="134" height="26" as="geometry" />
        </mxCell>
        <mxCell id="ScmmdYI26w7pvmoBLU-k-205" value="+string email" style="text;strokeColor=none;fillColor=none;align=left;verticalAlign=top;spacingLeft=4;spacingRight=4;overflow=hidden;rotatable=0;points=[[0,0.5],[1,0.5]];portConstraint=eastwest;" parent="ScmmdYI26w7pvmoBLU-k-202" vertex="1">
          <mxGeometry y="77.56923029972957" width="134" height="26" as="geometry" />
        </mxCell>
        <mxCell id="ScmmdYI26w7pvmoBLU-k-206" value="+string role" style="text;strokeColor=none;fillColor=none;align=left;verticalAlign=top;spacingLeft=4;spacingRight=4;overflow=hidden;rotatable=0;points=[[0,0.5],[1,0.5]];portConstraint=eastwest;" parent="ScmmdYI26w7pvmoBLU-k-202" vertex="1">
          <mxGeometry y="103.56923029972957" width="134" height="26" as="geometry" />
        </mxCell>
        <mxCell id="ScmmdYI26w7pvmoBLU-k-207" value="+string password" style="text;strokeColor=none;fillColor=none;align=left;verticalAlign=top;spacingLeft=4;spacingRight=4;overflow=hidden;rotatable=0;points=[[0,0.5],[1,0.5]];portConstraint=eastwest;" parent="ScmmdYI26w7pvmoBLU-k-202" vertex="1">
          <mxGeometry y="129.56923029972955" width="134" height="26" as="geometry" />
        </mxCell>
        <mxCell id="ScmmdYI26w7pvmoBLU-k-209" value="Admin" style="swimlane;fontStyle=1;align=center;verticalAlign=top;childLayout=stackLayout;horizontal=1;startSize=26;horizontalStack=0;resizeParent=1;resizeParentMax=0;resizeLast=0;collapsible=0;marginBottom=0;" parent="1" vertex="1">
          <mxGeometry x="750" y="-260" width="134" height="130" as="geometry" />
        </mxCell>
        <mxCell id="ScmmdYI26w7pvmoBLU-k-210" value="+int adminID" style="text;strokeColor=none;fillColor=none;align=left;verticalAlign=top;spacingLeft=4;spacingRight=4;overflow=hidden;rotatable=0;points=[[0,0.5],[1,0.5]];portConstraint=eastwest;" parent="ScmmdYI26w7pvmoBLU-k-209" vertex="1">
          <mxGeometry y="26" width="134" height="26" as="geometry" />
        </mxCell>
        <mxCell id="ScmmdYI26w7pvmoBLU-k-211" value="+string name" style="text;strokeColor=none;fillColor=none;align=left;verticalAlign=top;spacingLeft=4;spacingRight=4;overflow=hidden;rotatable=0;points=[[0,0.5],[1,0.5]];portConstraint=eastwest;" parent="ScmmdYI26w7pvmoBLU-k-209" vertex="1">
          <mxGeometry y="52" width="134" height="26" as="geometry" />
        </mxCell>
        <mxCell id="ScmmdYI26w7pvmoBLU-k-212" value="+string email" style="text;strokeColor=none;fillColor=none;align=left;verticalAlign=top;spacingLeft=4;spacingRight=4;overflow=hidden;rotatable=0;points=[[0,0.5],[1,0.5]];portConstraint=eastwest;" parent="ScmmdYI26w7pvmoBLU-k-209" vertex="1">
          <mxGeometry y="78" width="134" height="26" as="geometry" />
        </mxCell>
        <mxCell id="ScmmdYI26w7pvmoBLU-k-213" value="+string password" style="text;strokeColor=none;fillColor=none;align=left;verticalAlign=top;spacingLeft=4;spacingRight=4;overflow=hidden;rotatable=0;points=[[0,0.5],[1,0.5]];portConstraint=eastwest;" parent="ScmmdYI26w7pvmoBLU-k-209" vertex="1">
          <mxGeometry y="104" width="134" height="26" as="geometry" />
        </mxCell>
        <mxCell id="ScmmdYI26w7pvmoBLU-k-215" value="Payment" style="swimlane;fontStyle=1;align=center;verticalAlign=top;childLayout=stackLayout;horizontal=1;startSize=24.82105134662829;horizontalStack=0;resizeParent=1;resizeParentMax=0;resizeLast=0;collapsible=0;marginBottom=0;" parent="1" vertex="1">
          <mxGeometry x="784" y="390" width="176" height="174.82105134662828" as="geometry" />
        </mxCell>
        <mxCell id="ScmmdYI26w7pvmoBLU-k-216" value="+int paymentID" style="text;strokeColor=none;fillColor=none;align=left;verticalAlign=top;spacingLeft=4;spacingRight=4;overflow=hidden;rotatable=0;points=[[0,0.5],[1,0.5]];portConstraint=eastwest;" parent="ScmmdYI26w7pvmoBLU-k-215" vertex="1">
          <mxGeometry y="24.82105134662829" width="176" height="25" as="geometry" />
        </mxCell>
        <mxCell id="ScmmdYI26w7pvmoBLU-k-219" value="+float amount" style="text;strokeColor=none;fillColor=none;align=left;verticalAlign=top;spacingLeft=4;spacingRight=4;overflow=hidden;rotatable=0;points=[[0,0.5],[1,0.5]];portConstraint=eastwest;" parent="ScmmdYI26w7pvmoBLU-k-215" vertex="1">
          <mxGeometry y="49.821051346628295" width="176" height="25" as="geometry" />
        </mxCell>
        <mxCell id="ScmmdYI26w7pvmoBLU-k-220" value="+string paymentMethod" style="text;strokeColor=none;fillColor=none;align=left;verticalAlign=top;spacingLeft=4;spacingRight=4;overflow=hidden;rotatable=0;points=[[0,0.5],[1,0.5]];portConstraint=eastwest;" parent="ScmmdYI26w7pvmoBLU-k-215" vertex="1">
          <mxGeometry y="74.8210513466283" width="176" height="25" as="geometry" />
        </mxCell>
        <mxCell id="ScmmdYI26w7pvmoBLU-k-221" value="+string paymentStatus" style="text;strokeColor=none;fillColor=none;align=left;verticalAlign=top;spacingLeft=4;spacingRight=4;overflow=hidden;rotatable=0;points=[[0,0.5],[1,0.5]];portConstraint=eastwest;" parent="ScmmdYI26w7pvmoBLU-k-215" vertex="1">
          <mxGeometry y="99.8210513466283" width="176" height="25" as="geometry" />
        </mxCell>
        <mxCell id="ScmmdYI26w7pvmoBLU-k-222" value="+date dateOfPayment" style="text;strokeColor=none;fillColor=none;align=left;verticalAlign=top;spacingLeft=4;spacingRight=4;overflow=hidden;rotatable=0;points=[[0,0.5],[1,0.5]];portConstraint=eastwest;" parent="ScmmdYI26w7pvmoBLU-k-215" vertex="1">
          <mxGeometry y="124.8210513466283" width="176" height="25" as="geometry" />
        </mxCell>
        <mxCell id="ScmmdYI26w7pvmoBLU-k-223" value="+time timeOfPayment" style="text;strokeColor=none;fillColor=none;align=left;verticalAlign=top;spacingLeft=4;spacingRight=4;overflow=hidden;rotatable=0;points=[[0,0.5],[1,0.5]];portConstraint=eastwest;" parent="ScmmdYI26w7pvmoBLU-k-215" vertex="1">
          <mxGeometry y="149.82105134662828" width="176" height="25" as="geometry" />
        </mxCell>
        <mxCell id="ScmmdYI26w7pvmoBLU-k-225" value="Rating" style="swimlane;fontStyle=1;align=center;verticalAlign=top;childLayout=stackLayout;horizontal=1;startSize=26;horizontalStack=0;resizeParent=1;resizeParentMax=0;resizeLast=0;collapsible=0;marginBottom=0;" parent="1" vertex="1">
          <mxGeometry x="981.16" y="-93.66" width="129" height="104" as="geometry" />
        </mxCell>
        <mxCell id="ScmmdYI26w7pvmoBLU-k-226" value="+int ratingID" style="text;strokeColor=none;fillColor=none;align=left;verticalAlign=top;spacingLeft=4;spacingRight=4;overflow=hidden;rotatable=0;points=[[0,0.5],[1,0.5]];portConstraint=eastwest;" parent="ScmmdYI26w7pvmoBLU-k-225" vertex="1">
          <mxGeometry y="26" width="129" height="26" as="geometry" />
        </mxCell>
        <mxCell id="ScmmdYI26w7pvmoBLU-k-227" value="+string comment" style="text;strokeColor=none;fillColor=none;align=left;verticalAlign=top;spacingLeft=4;spacingRight=4;overflow=hidden;rotatable=0;points=[[0,0.5],[1,0.5]];portConstraint=eastwest;" parent="ScmmdYI26w7pvmoBLU-k-225" vertex="1">
          <mxGeometry y="52" width="129" height="26" as="geometry" />
        </mxCell>
        <mxCell id="ScmmdYI26w7pvmoBLU-k-229" value="+int ratingValue" style="text;strokeColor=none;fillColor=none;align=left;verticalAlign=top;spacingLeft=4;spacingRight=4;overflow=hidden;rotatable=0;points=[[0,0.5],[1,0.5]];portConstraint=eastwest;" parent="ScmmdYI26w7pvmoBLU-k-225" vertex="1">
          <mxGeometry y="78" width="129" height="26" as="geometry" />
        </mxCell>
        <mxCell id="ScmmdYI26w7pvmoBLU-k-231" value="Expense" style="swimlane;fontStyle=1;align=center;verticalAlign=top;childLayout=stackLayout;horizontal=1;startSize=26;horizontalStack=0;resizeParent=1;resizeParentMax=0;resizeLast=0;collapsible=0;marginBottom=0;" parent="1" vertex="1">
          <mxGeometry x="530" y="-410" width="168" height="156" as="geometry" />
        </mxCell>
        <mxCell id="ScmmdYI26w7pvmoBLU-k-232" value="+int expenseID" style="text;strokeColor=none;fillColor=none;align=left;verticalAlign=top;spacingLeft=4;spacingRight=4;overflow=hidden;rotatable=0;points=[[0,0.5],[1,0.5]];portConstraint=eastwest;" parent="ScmmdYI26w7pvmoBLU-k-231" vertex="1">
          <mxGeometry y="26" width="168" height="26" as="geometry" />
        </mxCell>
        <mxCell id="ScmmdYI26w7pvmoBLU-k-233" value="+string expenseName" style="text;strokeColor=none;fillColor=none;align=left;verticalAlign=top;spacingLeft=4;spacingRight=4;overflow=hidden;rotatable=0;points=[[0,0.5],[1,0.5]];portConstraint=eastwest;" parent="ScmmdYI26w7pvmoBLU-k-231" vertex="1">
          <mxGeometry y="52" width="168" height="26" as="geometry" />
        </mxCell>
        <mxCell id="ScmmdYI26w7pvmoBLU-k-234" value="+float cost" style="text;strokeColor=none;fillColor=none;align=left;verticalAlign=top;spacingLeft=4;spacingRight=4;overflow=hidden;rotatable=0;points=[[0,0.5],[1,0.5]];portConstraint=eastwest;" parent="ScmmdYI26w7pvmoBLU-k-231" vertex="1">
          <mxGeometry y="78" width="168" height="26" as="geometry" />
        </mxCell>
        <mxCell id="ScmmdYI26w7pvmoBLU-k-235" value="+string description" style="text;strokeColor=none;fillColor=none;align=left;verticalAlign=top;spacingLeft=4;spacingRight=4;overflow=hidden;rotatable=0;points=[[0,0.5],[1,0.5]];portConstraint=eastwest;" parent="ScmmdYI26w7pvmoBLU-k-231" vertex="1">
          <mxGeometry y="104" width="168" height="26" as="geometry" />
        </mxCell>
        <mxCell id="K6QkxCRquSAkjNnAn1gc-1" value="+date addDate" style="text;strokeColor=none;fillColor=none;align=left;verticalAlign=top;spacingLeft=4;spacingRight=4;overflow=hidden;rotatable=0;points=[[0,0.5],[1,0.5]];portConstraint=eastwest;" vertex="1" parent="ScmmdYI26w7pvmoBLU-k-231">
          <mxGeometry y="130" width="168" height="26" as="geometry" />
        </mxCell>
        <mxCell id="ScmmdYI26w7pvmoBLU-k-237" value="Favourite" style="swimlane;fontStyle=1;align=center;verticalAlign=top;childLayout=stackLayout;horizontal=1;startSize=26;horizontalStack=0;resizeParent=1;resizeParentMax=0;resizeLast=0;collapsible=0;marginBottom=0;" parent="1" vertex="1">
          <mxGeometry x="800" y="-6.999999999999943" width="128" height="52" as="geometry" />
        </mxCell>
        <mxCell id="ScmmdYI26w7pvmoBLU-k-238" value="+int favouriteID" style="text;strokeColor=none;fillColor=none;align=left;verticalAlign=top;spacingLeft=4;spacingRight=4;overflow=hidden;rotatable=0;points=[[0,0.5],[1,0.5]];portConstraint=eastwest;" parent="ScmmdYI26w7pvmoBLU-k-237" vertex="1">
          <mxGeometry y="26" width="128" height="26" as="geometry" />
        </mxCell>
        <mxCell id="ScmmdYI26w7pvmoBLU-k-249" value="rated_by" style="startArrow=none;endArrow=none;exitX=1;exitY=0.5;entryX=0;entryY=0.36;rounded=0;exitDx=0;exitDy=0;" parent="1" source="ScmmdYI26w7pvmoBLU-k-147" target="ScmmdYI26w7pvmoBLU-k-225" edge="1">
          <mxGeometry relative="1" as="geometry" />
        </mxCell>
        <mxCell id="ScmmdYI26w7pvmoBLU-k-250" value="1" style="edgeLabel;resizable=0;labelBackgroundColor=none;fontSize=12;align=left;verticalAlign=bottom;" parent="ScmmdYI26w7pvmoBLU-k-249" vertex="1">
          <mxGeometry x="-1" relative="1" as="geometry" />
        </mxCell>
        <mxCell id="ScmmdYI26w7pvmoBLU-k-251" value="0..*" style="edgeLabel;resizable=0;labelBackgroundColor=none;fontSize=12;align=right;verticalAlign=top;" parent="ScmmdYI26w7pvmoBLU-k-249" vertex="1">
          <mxGeometry x="1" relative="1" as="geometry" />
        </mxCell>
        <mxCell id="ScmmdYI26w7pvmoBLU-k-258" value="categorizes" style="curved=1;startArrow=none;endArrow=none;exitX=1;exitY=0.5;entryX=0.121;entryY=0.009;rounded=0;entryDx=0;entryDy=0;entryPerimeter=0;" parent="1" source="ScmmdYI26w7pvmoBLU-k-157" target="ScmmdYI26w7pvmoBLU-k-143" edge="1">
          <mxGeometry relative="1" as="geometry">
            <Array as="points" />
          </mxGeometry>
        </mxCell>
        <mxCell id="ScmmdYI26w7pvmoBLU-k-259" value="1" style="edgeLabel;resizable=0;labelBackgroundColor=none;fontSize=12;align=left;verticalAlign=bottom;" parent="ScmmdYI26w7pvmoBLU-k-258" vertex="1">
          <mxGeometry x="-1" relative="1" as="geometry" />
        </mxCell>
        <mxCell id="ScmmdYI26w7pvmoBLU-k-260" value="1..*" style="edgeLabel;resizable=0;labelBackgroundColor=none;fontSize=12;align=right;verticalAlign=top;" parent="ScmmdYI26w7pvmoBLU-k-258" vertex="1">
          <mxGeometry x="1" relative="1" as="geometry">
            <mxPoint x="20" y="-33" as="offset" />
          </mxGeometry>
        </mxCell>
        <mxCell id="ScmmdYI26w7pvmoBLU-k-261" value="has" style="startArrow=none;endArrow=none;exitX=1;exitY=0.5;entryX=0;entryY=0.5;rounded=0;exitDx=0;exitDy=0;entryDx=0;entryDy=0;" parent="1" source="ScmmdYI26w7pvmoBLU-k-167" target="ScmmdYI26w7pvmoBLU-k-179" edge="1">
          <mxGeometry relative="1" as="geometry" />
        </mxCell>
        <mxCell id="ScmmdYI26w7pvmoBLU-k-262" value="1" style="edgeLabel;resizable=0;labelBackgroundColor=none;fontSize=12;align=right;verticalAlign=bottom;" parent="ScmmdYI26w7pvmoBLU-k-261" vertex="1">
          <mxGeometry x="-1" relative="1" as="geometry">
            <mxPoint x="16" as="offset" />
          </mxGeometry>
        </mxCell>
        <mxCell id="ScmmdYI26w7pvmoBLU-k-263" value="1" style="edgeLabel;resizable=0;labelBackgroundColor=none;fontSize=12;align=left;verticalAlign=top;" parent="ScmmdYI26w7pvmoBLU-k-261" vertex="1">
          <mxGeometry x="1" relative="1" as="geometry">
            <mxPoint x="-20" y="-31" as="offset" />
          </mxGeometry>
        </mxCell>
        <mxCell id="ScmmdYI26w7pvmoBLU-k-264" value="places" style="startArrow=none;endArrow=none;entryX=1;entryY=0.5;rounded=0;entryDx=0;entryDy=0;" parent="1" target="ScmmdYI26w7pvmoBLU-k-189" edge="1">
          <mxGeometry relative="1" as="geometry">
            <mxPoint x="980" y="250" as="sourcePoint" />
          </mxGeometry>
        </mxCell>
        <mxCell id="ScmmdYI26w7pvmoBLU-k-265" value="1" style="edgeLabel;resizable=0;labelBackgroundColor=none;fontSize=12;align=left;verticalAlign=bottom;" parent="ScmmdYI26w7pvmoBLU-k-264" vertex="1">
          <mxGeometry x="-1" relative="1" as="geometry">
            <mxPoint x="-21" y="4" as="offset" />
          </mxGeometry>
        </mxCell>
        <mxCell id="ScmmdYI26w7pvmoBLU-k-266" value="1..*" style="edgeLabel;resizable=0;labelBackgroundColor=none;fontSize=12;align=right;verticalAlign=top;" parent="ScmmdYI26w7pvmoBLU-k-264" vertex="1">
          <mxGeometry x="1" relative="1" as="geometry">
            <mxPoint x="24" y="-36" as="offset" />
          </mxGeometry>
        </mxCell>
        <mxCell id="K6QkxCRquSAkjNnAn1gc-7" value="1..*" style="edgeLabel;resizable=0;labelBackgroundColor=none;fontSize=12;align=right;verticalAlign=top;" vertex="1" parent="ScmmdYI26w7pvmoBLU-k-264">
          <mxGeometry x="1" relative="1" as="geometry">
            <mxPoint x="-50" y="201" as="offset" />
          </mxGeometry>
        </mxCell>
        <mxCell id="ScmmdYI26w7pvmoBLU-k-267" value="submits" style="startArrow=none;endArrow=none;exitX=0.86;exitY=0;entryX=1;entryY=0.5;rounded=0;entryDx=0;entryDy=0;" parent="1" source="ScmmdYI26w7pvmoBLU-k-161" target="ScmmdYI26w7pvmoBLU-k-229" edge="1">
          <mxGeometry relative="1" as="geometry" />
        </mxCell>
        <mxCell id="ScmmdYI26w7pvmoBLU-k-268" value="1" style="edgeLabel;resizable=0;labelBackgroundColor=none;fontSize=12;align=left;verticalAlign=bottom;" parent="ScmmdYI26w7pvmoBLU-k-267" vertex="1">
          <mxGeometry x="-1" relative="1" as="geometry" />
        </mxCell>
        <mxCell id="ScmmdYI26w7pvmoBLU-k-269" value="0..*" style="edgeLabel;resizable=0;labelBackgroundColor=none;fontSize=12;align=right;verticalAlign=top;" parent="ScmmdYI26w7pvmoBLU-k-267" vertex="1">
          <mxGeometry x="1" relative="1" as="geometry">
            <mxPoint x="21" y="-19" as="offset" />
          </mxGeometry>
        </mxCell>
        <mxCell id="ScmmdYI26w7pvmoBLU-k-270" value="makes" style="startArrow=none;endArrow=none;exitX=0.5;exitY=1;entryX=1;entryY=0.5;rounded=0;entryDx=0;entryDy=0;exitDx=0;exitDy=0;" parent="1" source="ScmmdYI26w7pvmoBLU-k-161" edge="1">
          <mxGeometry relative="1" as="geometry">
            <mxPoint x="960" y="452.32105134662834" as="targetPoint" />
          </mxGeometry>
        </mxCell>
        <mxCell id="ScmmdYI26w7pvmoBLU-k-271" value="1" style="edgeLabel;resizable=0;labelBackgroundColor=none;fontSize=12;align=left;verticalAlign=bottom;" parent="ScmmdYI26w7pvmoBLU-k-270" vertex="1">
          <mxGeometry x="-1" relative="1" as="geometry">
            <mxPoint y="16" as="offset" />
          </mxGeometry>
        </mxCell>
        <mxCell id="ScmmdYI26w7pvmoBLU-k-272" value="1..*" style="edgeLabel;resizable=0;labelBackgroundColor=none;fontSize=12;align=right;verticalAlign=top;" parent="ScmmdYI26w7pvmoBLU-k-270" vertex="1">
          <mxGeometry x="1" relative="1" as="geometry">
            <mxPoint x="24" y="-2" as="offset" />
          </mxGeometry>
        </mxCell>
        <mxCell id="ScmmdYI26w7pvmoBLU-k-273" value="saves" style="startArrow=none;endArrow=none;exitX=0;exitY=0;entryX=0.989;entryY=1;rounded=0;exitDx=0;exitDy=0;entryDx=0;entryDy=0;entryPerimeter=0;" parent="1" source="ScmmdYI26w7pvmoBLU-k-161" target="ScmmdYI26w7pvmoBLU-k-238" edge="1">
          <mxGeometry relative="1" as="geometry" />
        </mxCell>
        <mxCell id="ScmmdYI26w7pvmoBLU-k-274" value="1" style="edgeLabel;resizable=0;labelBackgroundColor=none;fontSize=12;align=left;verticalAlign=bottom;" parent="ScmmdYI26w7pvmoBLU-k-273" vertex="1">
          <mxGeometry x="-1" relative="1" as="geometry">
            <mxPoint x="-1" y="3" as="offset" />
          </mxGeometry>
        </mxCell>
        <mxCell id="ScmmdYI26w7pvmoBLU-k-275" value="1..*" style="edgeLabel;resizable=0;labelBackgroundColor=none;fontSize=12;align=right;verticalAlign=top;" parent="ScmmdYI26w7pvmoBLU-k-273" vertex="1">
          <mxGeometry x="1" relative="1" as="geometry">
            <mxPoint x="24" y="-25" as="offset" />
          </mxGeometry>
        </mxCell>
        <mxCell id="ScmmdYI26w7pvmoBLU-k-282" value="paid_by" style="startArrow=none;endArrow=none;exitX=0.75;exitY=1;entryX=0;entryY=0.5;rounded=0;entryDx=0;entryDy=0;exitDx=0;exitDy=0;" parent="1" source="ScmmdYI26w7pvmoBLU-k-183" target="ScmmdYI26w7pvmoBLU-k-216" edge="1">
          <mxGeometry relative="1" as="geometry">
            <mxPoint x="768.49" y="590.0019995117184" as="sourcePoint" />
          </mxGeometry>
        </mxCell>
        <mxCell id="ScmmdYI26w7pvmoBLU-k-284" value="1" style="edgeLabel;resizable=0;labelBackgroundColor=none;fontSize=12;align=right;verticalAlign=top;" parent="ScmmdYI26w7pvmoBLU-k-282" vertex="1">
          <mxGeometry x="1" relative="1" as="geometry" />
        </mxCell>
        <mxCell id="ScmmdYI26w7pvmoBLU-k-291" value="handles" style="startArrow=none;endArrow=none;exitX=0.031;exitY=0.052;entryX=1;entryY=0.5;rounded=0;exitDx=0;exitDy=0;exitPerimeter=0;entryDx=0;entryDy=0;" parent="1" source="ScmmdYI26w7pvmoBLU-k-209" target="ScmmdYI26w7pvmoBLU-k-235" edge="1">
          <mxGeometry relative="1" as="geometry" />
        </mxCell>
        <mxCell id="ScmmdYI26w7pvmoBLU-k-292" value="1" style="edgeLabel;resizable=0;labelBackgroundColor=none;fontSize=12;align=left;verticalAlign=bottom;" parent="ScmmdYI26w7pvmoBLU-k-291" vertex="1">
          <mxGeometry x="-1" relative="1" as="geometry">
            <mxPoint x="-24" y="13" as="offset" />
          </mxGeometry>
        </mxCell>
        <mxCell id="ScmmdYI26w7pvmoBLU-k-293" value="1..*" style="edgeLabel;resizable=0;labelBackgroundColor=none;fontSize=12;align=right;verticalAlign=top;" parent="ScmmdYI26w7pvmoBLU-k-291" vertex="1">
          <mxGeometry x="1" relative="1" as="geometry">
            <mxPoint x="22" y="-27" as="offset" />
          </mxGeometry>
        </mxCell>
        <mxCell id="ScmmdYI26w7pvmoBLU-k-294" value="manages" style="curved=1;startArrow=none;endArrow=none;exitX=1.01;exitY=0.5;entryX=0;entryY=0.5;rounded=0;" parent="1" source="ScmmdYI26w7pvmoBLU-k-209" target="ScmmdYI26w7pvmoBLU-k-202" edge="1">
          <mxGeometry relative="1" as="geometry">
            <Array as="points" />
          </mxGeometry>
        </mxCell>
        <mxCell id="ScmmdYI26w7pvmoBLU-k-295" value="1" style="edgeLabel;resizable=0;labelBackgroundColor=none;fontSize=12;align=left;verticalAlign=bottom;" parent="ScmmdYI26w7pvmoBLU-k-294" vertex="1">
          <mxGeometry x="-1" relative="1" as="geometry">
            <mxPoint x="6" y="19" as="offset" />
          </mxGeometry>
        </mxCell>
        <mxCell id="ScmmdYI26w7pvmoBLU-k-296" value="1..*" style="edgeLabel;resizable=0;labelBackgroundColor=none;fontSize=12;align=right;verticalAlign=top;" parent="ScmmdYI26w7pvmoBLU-k-294" vertex="1">
          <mxGeometry x="1" relative="1" as="geometry">
            <mxPoint x="-10" y="-16" as="offset" />
          </mxGeometry>
        </mxCell>
        <mxCell id="ScmmdYI26w7pvmoBLU-k-297" value="contains" style="startArrow=none;endArrow=none;exitX=1.011;exitY=0.248;entryX=0;entryY=0.5;rounded=0;exitDx=0;exitDy=0;entryDx=0;entryDy=0;exitPerimeter=0;" parent="1" source="ScmmdYI26w7pvmoBLU-k-150" target="ScmmdYI26w7pvmoBLU-k-184" edge="1">
          <mxGeometry relative="1" as="geometry">
            <mxPoint x="480" y="90" as="sourcePoint" />
            <mxPoint x="685" y="796" as="targetPoint" />
          </mxGeometry>
        </mxCell>
        <mxCell id="ScmmdYI26w7pvmoBLU-k-298" value="1" style="edgeLabel;resizable=0;labelBackgroundColor=none;fontSize=12;align=left;verticalAlign=bottom;" parent="ScmmdYI26w7pvmoBLU-k-297" vertex="1">
          <mxGeometry x="-1" relative="1" as="geometry">
            <mxPoint x="5" y="8" as="offset" />
          </mxGeometry>
        </mxCell>
        <mxCell id="ScmmdYI26w7pvmoBLU-k-299" value="1..*" style="edgeLabel;resizable=0;labelBackgroundColor=none;fontSize=12;align=right;verticalAlign=top;" parent="ScmmdYI26w7pvmoBLU-k-297" vertex="1">
          <mxGeometry x="1" relative="1" as="geometry" />
        </mxCell>
        <mxCell id="ScmmdYI26w7pvmoBLU-k-300" value="Added By" style="startArrow=none;endArrow=none;exitX=1;exitY=0.5;entryX=0;entryY=0.5;rounded=0;exitDx=0;exitDy=0;entryDx=0;entryDy=0;" parent="1" source="ScmmdYI26w7pvmoBLU-k-144" target="ScmmdYI26w7pvmoBLU-k-213" edge="1">
          <mxGeometry relative="1" as="geometry">
            <mxPoint x="440" y="-101.43" as="sourcePoint" />
            <mxPoint x="1140.02" y="19.57" as="targetPoint" />
          </mxGeometry>
        </mxCell>
        <mxCell id="ScmmdYI26w7pvmoBLU-k-301" value="1..*" style="edgeLabel;resizable=0;labelBackgroundColor=none;fontSize=12;align=left;verticalAlign=bottom;" parent="ScmmdYI26w7pvmoBLU-k-300" vertex="1">
          <mxGeometry x="-1" relative="1" as="geometry" />
        </mxCell>
        <mxCell id="ScmmdYI26w7pvmoBLU-k-302" value="1" style="edgeLabel;resizable=0;labelBackgroundColor=none;fontSize=12;align=right;verticalAlign=top;" parent="ScmmdYI26w7pvmoBLU-k-300" vertex="1">
          <mxGeometry x="1" relative="1" as="geometry" />
        </mxCell>
        <mxCell id="96DApaI6acUymegrl165-2" value="Within" style="startArrow=none;endArrow=none;exitX=1.005;exitY=1.031;entryX=0.859;entryY=0;rounded=0;exitDx=0;exitDy=0;entryDx=0;entryDy=0;exitPerimeter=0;entryPerimeter=0;" parent="1" source="ScmmdYI26w7pvmoBLU-k-145" target="ScmmdYI26w7pvmoBLU-k-175" edge="1">
          <mxGeometry relative="1" as="geometry">
            <mxPoint x="505" y="-104" as="sourcePoint" />
            <mxPoint x="740" y="-113" as="targetPoint" />
            <Array as="points">
              <mxPoint x="1250" y="-120" />
            </Array>
          </mxGeometry>
        </mxCell>
        <mxCell id="96DApaI6acUymegrl165-3" value="1..*" style="edgeLabel;resizable=0;labelBackgroundColor=none;fontSize=12;align=left;verticalAlign=bottom;" parent="96DApaI6acUymegrl165-2" vertex="1">
          <mxGeometry x="-1" relative="1" as="geometry">
            <mxPoint x="854" y="197" as="offset" />
          </mxGeometry>
        </mxCell>
        <mxCell id="96DApaI6acUymegrl165-7" value="1..*" style="edgeLabel;resizable=0;labelBackgroundColor=none;fontSize=12;align=left;verticalAlign=bottom;" parent="96DApaI6acUymegrl165-2" vertex="1">
          <mxGeometry x="-1" relative="1" as="geometry">
            <mxPoint x="4" y="-3" as="offset" />
          </mxGeometry>
        </mxCell>
        <mxCell id="K6QkxCRquSAkjNnAn1gc-9" value="" style="startArrow=none;endArrow=none;exitX=1;exitY=0.5;entryX=0;entryY=0.25;rounded=0;exitDx=0;exitDy=0;entryDx=0;entryDy=0;" edge="1" parent="1" source="ScmmdYI26w7pvmoBLU-k-148" target="ScmmdYI26w7pvmoBLU-k-237">
          <mxGeometry relative="1" as="geometry">
            <mxPoint x="505" y="-32" as="sourcePoint" />
            <mxPoint x="991" y="-46" as="targetPoint" />
          </mxGeometry>
        </mxCell>
        <mxCell id="K6QkxCRquSAkjNnAn1gc-10" value="1" style="edgeLabel;resizable=0;labelBackgroundColor=none;fontSize=12;align=left;verticalAlign=bottom;" vertex="1" parent="K6QkxCRquSAkjNnAn1gc-9">
          <mxGeometry x="-1" relative="1" as="geometry" />
        </mxCell>
        <mxCell id="K6QkxCRquSAkjNnAn1gc-11" value="0..*" style="edgeLabel;resizable=0;labelBackgroundColor=none;fontSize=12;align=right;verticalAlign=top;" vertex="1" parent="K6QkxCRquSAkjNnAn1gc-9">
          <mxGeometry x="1" relative="1" as="geometry" />
        </mxCell>
      </root>
    </mxGraphModel>
  </diagram>
</mxfile>
